<svg width="8" height="14" viewBox="0 0 8 14" fill="none" xmlns="http://www.w3.org/2000/svg">
<path d="M0.293 13.364C0.105529 13.1764 0.000213623 12.9221 0.000213623 12.657C0.000213623 12.3918 0.105529 12.1375 0.293 11.95L5.243 6.99995L0.293 2.04995C0.110842 1.86135 0.0100473 1.60875 0.0123258 1.34655C0.0146042 1.08435 0.119773 0.833542 0.305181 0.648134C0.49059 0.462726 0.741402 0.357558 1.0036 0.35528C1.2658 0.353002 1.5184 0.453795 1.707 0.635954L7.364 6.29295C7.55147 6.48048 7.65679 6.73479 7.65679 6.99995C7.65679 7.26512 7.55147 7.51942 7.364 7.70695L1.707 13.364C1.51947 13.5514 1.26516 13.6567 1 13.6567C0.734836 13.6567 0.480528 13.5514 0.293 13.364Z" fill="#48738D" fill-opacity="0.8"/>
</svg>
